<svg width="118" height="118" fill="none" xmlns="http://www.w3.org/2000/svg"><path d="M94.744 26.206c-6.539-3.049-13.619-5.261-20.994-6.54a.441.441 0 0 0-.344.148 66.938 66.938 0 0 0-2.606 5.36 79.11 79.11 0 0 0-23.6 0c-.688-1.672-1.72-3.737-2.655-5.36-.05-.098-.197-.147-.344-.147a84.13 84.13 0 0 0-20.994 6.539c-.05 0-.099.049-.148.098C9.686 46.315 6 65.785 7.818 85.058c0 .099.049.197.147.246 8.85 6.49 17.356 10.424 25.763 13.03.148.048.295 0 .344-.099a63.351 63.351 0 0 0 5.261-8.555c.099-.197 0-.393-.196-.443a60.533 60.533 0 0 1-8.064-3.834c-.196-.099-.196-.394-.049-.541.541-.394 1.082-.836 1.623-1.23a.303.303 0 0 1 .344-.049c16.913 7.72 35.154 7.72 51.87 0a.303.303 0 0 1 .345.05c.54.442 1.081.835 1.622 1.278.197.147.197.442-.049.54-2.556 1.525-5.26 2.754-8.063 3.836-.197.049-.246.295-.197.442 1.573 3 3.343 5.851 5.261 8.555.147.05.295.098.442.05 8.457-2.606 16.963-6.54 25.813-13.03a.27.27 0 0 0 .147-.246c2.164-22.272-3.589-41.595-15.241-58.754-.05-.049-.099-.098-.197-.098ZM41.89 73.308c-5.064 0-9.293-4.671-9.293-10.424 0-5.752 4.13-10.423 9.293-10.423 5.212 0 9.342 4.72 9.292 10.423 0 5.753-4.13 10.424-9.292 10.424Zm34.27 0c-5.065 0-9.293-4.671-9.293-10.424 0-5.752 4.13-10.423 9.292-10.423 5.212 0 9.342 4.72 9.293 10.423 0 5.753-4.081 10.424-9.293 10.424Z" fill="#2B2526"/></svg>